<svg width="250" height="250" viewBox="0 0 250 250" fill="none" xmlns="http://www.w3.org/2000/svg">
<g clip-path="url(#clip0_144_10)">
<path fill-rule="evenodd" clip-rule="evenodd" d="M146.515 89.055C154.163 85.2417 163.894 79.6283 173.636 71.9375C175.69 76.2033 175.915 79.9258 174.857 82.9317C174.107 85.05 172.694 86.8925 170.835 88.3583C168.823 89.9425 166.309 91.0958 163.531 91.7192C158.259 92.9067 152.104 92.2133 146.515 89.055ZM147.841 128.127L157.964 133.974C137.294 145.559 131.675 167.071 125 188.023C118.326 167.071 112.706 145.559 92.0369 133.974L102.16 128.127C103.14 127.757 103.977 127.086 104.551 126.211C105.126 125.336 105.409 124.302 105.36 123.256C104.433 103.633 109.731 94.9558 116.878 89.5075C119.441 87.5558 122.239 86.5758 125 86.5758C127.761 86.5758 130.559 87.5558 133.124 89.5075C140.27 94.9558 145.569 103.633 144.641 123.256C144.592 124.302 144.875 125.336 145.45 126.211C146.025 127.086 146.862 127.757 147.841 128.127ZM125 0C136.702 0.314167 148.433 2.58583 158.614 7.005C165.664 10.0692 172.242 14.1167 178.199 18.9567C180.889 21.1417 183.104 23.2525 185.544 25.6825C192.124 25.91 201.742 18.5992 206.207 11.7583C198.523 36.95 163.458 66.6992 139.182 78.0825C139.172 78.0783 139.165 78.0725 139.158 78.0675C134.801 74.7408 129.901 73.0775 125 73.0775C120.099 73.0775 115.2 74.7408 110.844 78.0675C110.836 78.0717 110.829 78.0792 110.819 78.0825C86.5428 66.6992 51.4786 36.95 43.7944 11.7583C48.2586 18.5992 57.8761 25.91 64.4569 25.6825C66.8978 23.2533 69.1128 21.1417 71.8019 18.9567C77.7586 14.1167 84.3369 10.0692 91.3869 7.005C101.569 2.58583 113.299 0.314167 125 0ZM103.485 89.055C95.8386 85.2417 86.1069 79.6283 76.3653 71.9375C74.3111 76.2033 74.0861 79.9258 75.1436 82.9317C75.8944 85.05 77.3078 86.8925 79.1653 88.3583C81.1786 89.9425 83.6919 91.0958 86.4703 91.7192C91.7419 92.9067 97.8961 92.2133 103.485 89.055Z" fill="white"/>
<path fill-rule="evenodd" clip-rule="evenodd" d="M184.306 62.5148C189.669 57.1023 194.395 51.1115 198.195 45.7656L200.125 49.3981C206.338 61.829 209.567 74.2098 209.567 88.1431L209.553 110.253L209.67 121.715C210.12 149.853 216.208 178.322 230 204.376L201.144 181.107L180.727 214.24L159.277 194.047L125 249.671L90.7233 194.048L69.2742 214.241L48.8567 181.108L20 204.376C33.7917 178.323 39.88 149.854 40.3308 121.716L40.4475 110.254L40.4342 88.144C40.4342 74.2098 43.6617 61.829 49.8767 49.399L51.8058 45.7665C55.6058 51.1123 60.3308 57.1023 65.695 62.5156L64.02 65.9948C60.7658 72.7523 59.6883 80.3081 62.2233 87.494C63.8575 92.1223 66.84 96.0915 70.685 99.1215C74.4183 102.064 78.8367 104.047 83.4625 105.089C86.4758 105.767 89.5458 106.046 92.5958 105.951C91.8842 109.986 91.5733 114.17 91.5533 118.433L64.3333 134.155L85.3383 145.929C87.0172 146.87 88.6154 147.949 90.1167 149.153C107.434 164.701 117.846 210.699 125.001 233.166C132.157 210.699 142.568 164.701 159.886 149.153C161.387 147.948 162.985 146.87 164.664 145.929L185.669 134.155L158.448 118.433C158.428 114.17 158.117 109.986 157.406 105.951C160.456 106.046 163.526 105.767 166.539 105.089C171.165 104.047 175.584 102.064 179.317 99.1215C183.161 96.0915 186.144 92.1223 187.777 87.494C190.313 80.3081 189.235 72.7531 185.982 65.9948L184.307 62.5156L184.306 62.5148Z" fill="white"/>
</g>
<defs>
<clipPath id="clip0_144_10">
<rect width="210" height="250" fill="white" transform="translate(20)"/>
</clipPath>
</defs>
</svg>
